<svg width="195" height="341" viewBox="0 0 195 341" fill="none" xmlns="http://www.w3.org/2000/svg">
<path d="M93.5082 325.381L78.8615 310.735L63.7393 325.789L78.8615 340.913L93.5082 326.2L108.221 340.913L123.275 325.789L108.221 310.735L93.5082 325.381Z" fill="#B5C934"/>
<path d="M29.769 325.103L15.1222 310.456L0 325.51L15.1222 340.634L29.769 325.921L44.482 340.634L59.536 325.51L44.482 310.456L29.769 325.103Z" fill="#B5C934"/>
<path d="M31.4719 14.6467L16.8251 0L1.70288 15.056L16.8251 30.1782L31.4719 15.4652L46.1829 30.1782L61.2389 15.056L46.1829 0L31.4719 14.6467Z" fill="#B5C934"/>
<path d="M133.707 22.6912L135.145 52.6316L189.737 101.832L194.741 77.6983L133.707 22.6912Z" fill="#B5C934"/>
<path d="M131.314 105.889V286.818C131.314 289.462 128.33 290.682 126.091 290.75C126.091 308.653 152.606 311.027 152.606 286.818V84.8658L131.314 105.889Z" fill="#252528"/>
<path d="M33.9449 163.256H26.1909V64.9964C26.1909 59.9024 33.9449 59.9024 33.9449 64.9964V163.256ZM4.77808 64.9964V184.552H33.9449V282.928C33.9449 288.135 26.1909 288.135 26.1909 282.928V189.529L4.77808 210.361V282.928C4.77808 316.491 55.2408 316.491 55.2408 282.928V64.9964C55.2408 31.4332 4.77808 31.4332 4.77808 64.9964Z" fill="#252528"/>
<path d="M97.5985 132.292H89.8444V62.9658C89.8444 57.8737 97.5985 57.8737 97.5985 62.9658V132.292ZM68.5486 62.9658V153.588H97.5985V161.225H68.5486V211.688H97.5985V280.898C97.5985 285.99 89.8444 285.99 89.8444 280.898V216.433L68.5486 237.38V280.898C68.5486 297.216 80.471 305.549 92.7383 306.013H94.5896C106.859 305.664 118.894 297.216 118.894 280.898V190.275H89.8444V182.521H118.894V62.9658C118.894 29.4026 68.5486 29.4026 68.5486 62.9658Z" fill="#252528"/>
<path d="M108.825 15.1671L93.6639 0.120821L78.6177 15.1671L93.6639 30.2133L108.825 15.1671Z" fill="#B5C934"/>
</svg>
