<svg width="370" height="197" viewBox="0 0 370 197" fill="none" xmlns="http://www.w3.org/2000/svg">
<path d="M0 0H370V197H0V0Z" fill="#F8FAEB"/>
<path d="M100.058 176.558L92.4705 168.97L84.6367 176.769L92.4705 184.603L100.058 176.982L107.68 184.603L115.478 176.769L107.68 168.97L100.058 176.558Z" fill="#B5C934"/>
<path d="M67.9213 15.5875L60.3338 8L52.5 15.7995L60.3338 23.6333L67.9213 16.0115L75.5421 23.6333L83.3415 15.7995L75.5421 8L67.9213 15.5875Z" fill="#B5C934"/>
<path d="M120.882 19.7549L121.627 35.265L149.908 60.7521L152.5 48.2503L120.882 19.7549Z" fill="#B5C934"/>
<path d="M119.642 62.8535V156.58C119.642 157.95 118.097 158.582 116.937 158.618C116.937 167.892 130.672 169.122 130.672 156.58V51.9629L119.642 62.8535Z" fill="#252528"/>
<path d="M69.2023 92.5715H65.1854V41.67C65.1854 39.0311 69.2023 39.0311 69.2023 41.67V92.5715ZM54.093 41.67V103.603H69.2023V154.565C69.2023 157.263 65.1854 157.263 65.1854 154.565V106.182L54.093 116.973V154.565C54.093 171.952 80.2342 171.952 80.2342 154.565V41.67C80.2342 24.2832 54.093 24.2832 54.093 41.67Z" fill="#252528"/>
<path d="M102.177 76.5315H98.1601V40.6182C98.1601 37.9804 102.177 37.9804 102.177 40.6182V76.5315ZM87.1282 40.6182V87.5634H102.177V91.5197H87.1282V117.661H102.177V153.514C102.177 156.152 98.1601 156.152 98.1601 153.514V120.119L87.1282 130.97V153.514C87.1282 161.967 93.3044 166.284 99.6592 166.524H100.618C106.974 166.344 113.209 161.967 113.209 153.514V106.568H98.1601V102.552H113.209V40.6182C113.209 23.2314 87.1282 23.2314 87.1282 40.6182Z" fill="#252528"/>
<path d="M107.993 15.8569L100.139 8.0625L92.3444 15.8569L100.139 23.6513L107.993 15.8569Z" fill="#B5C934"/>
<path d="M202.438 84V76.402H208.528V84H202.438ZM172.162 99.428C168.875 99.428 165.917 98.8093 163.288 97.572C160.659 96.3733 158.59 94.6913 157.082 92.526C155.574 90.3993 154.82 87.9827 154.82 85.276C154.82 84.5027 154.878 83.478 154.994 82.202C155.11 80.8873 155.265 79.4567 155.458 77.91C155.69 76.3247 155.922 74.7007 156.154 73.038C156.425 71.3753 156.676 69.7707 156.908 68.224L165.666 69.384C165.279 71.9747 164.931 74.314 164.622 76.402C164.313 78.49 164.081 80.2687 163.926 81.738C163.771 83.2073 163.694 84.3287 163.694 85.102C163.694 86.5713 164.023 87.7893 164.68 88.756C165.337 89.7613 166.304 90.5153 167.58 91.018C168.856 91.5593 170.383 91.83 172.162 91.83H185.85C187.629 91.83 189.079 91.598 190.2 91.134C191.36 90.67 192.211 89.974 192.752 89.046C193.293 88.118 193.564 86.9773 193.564 85.624V60.916L195.42 62.424H188.982C187.435 62.424 186.217 62.6367 185.328 63.062C184.477 63.4487 183.859 64.1447 183.472 65.15C183.124 66.1553 182.95 67.586 182.95 69.442C182.95 71.4913 183.124 73.0187 183.472 74.024C183.859 74.9907 184.477 75.6287 185.328 75.938C186.217 76.2473 187.435 76.402 188.982 76.402H193.564V84H188.982C185.695 84 182.95 83.478 180.746 82.434C178.542 81.39 176.879 79.8047 175.758 77.678C174.637 75.5127 174.076 72.7673 174.076 69.442C174.076 66.31 174.637 63.6613 175.758 61.496C176.879 59.3307 178.542 57.6873 180.746 56.566C182.95 55.406 185.695 54.826 188.982 54.826H202.438V85.624C202.438 88.408 201.723 90.8247 200.292 92.874C198.9 94.962 196.947 96.5667 194.434 97.688C191.921 98.848 189.059 99.428 185.85 99.428H172.162ZM208.528 84V76.402C208.721 76.402 208.895 76.4987 209.05 76.692C209.205 76.8467 209.321 77.098 209.398 77.446C209.475 77.7553 209.533 78.142 209.572 78.606C209.649 79.07 209.688 79.592 209.688 80.172C209.688 80.752 209.649 81.2933 209.572 81.796C209.533 82.26 209.475 82.666 209.398 83.014C209.321 83.3233 209.205 83.5747 209.05 83.768C208.895 83.9227 208.721 84 208.528 84ZM179.876 49.432V42.356H188.344V49.432H179.876ZM191.302 49.432V42.356H199.77V49.432H191.302ZM227.6 84V76.402H235.14V84H227.6ZM235.14 84V76.402C235.372 76.402 235.546 76.4987 235.662 76.692C235.816 76.8467 235.932 77.098 236.01 77.446C236.126 77.7553 236.203 78.142 236.242 78.606C236.28 79.07 236.3 79.592 236.3 80.172C236.3 80.752 236.28 81.2933 236.242 81.796C236.203 82.26 236.126 82.666 236.01 83.014C235.932 83.3233 235.816 83.5747 235.662 83.768C235.546 83.9227 235.372 84 235.14 84ZM208.518 84C208.286 84 208.112 83.9227 207.996 83.768C207.841 83.5747 207.725 83.3233 207.648 83.014C207.57 82.666 207.512 82.26 207.474 81.796C207.396 81.2933 207.358 80.752 207.358 80.172C207.358 79.3987 207.396 78.7413 207.474 78.2C207.551 77.62 207.686 77.1753 207.88 76.866C208.034 76.5567 208.247 76.402 208.518 76.402V84ZM208.518 84V76.402H224.12L218.726 80.868V54.826H227.6V84H208.518ZM210.548 96.992V89.916H219.016V96.992H210.548ZM221.974 96.992V89.916H230.442V96.992H221.974ZM235.139 84V76.402H261.471L259.325 78.258V60.916L261.123 62.424H254.685C253.177 62.424 251.978 62.6367 251.089 63.062C250.238 63.4487 249.619 64.1447 249.233 65.15C248.885 66.1553 248.711 67.586 248.711 69.442C248.711 71.4913 248.885 73.0187 249.233 74.024C249.619 74.9907 250.238 75.6287 251.089 75.938C251.978 76.2473 253.177 76.402 254.685 76.402V83.42C251.437 83.42 248.691 82.956 246.449 82.028C244.245 81.1 242.582 79.6113 241.461 77.562C240.378 75.474 239.837 72.7673 239.837 69.442C239.837 66.31 240.378 63.6613 241.461 61.496C242.582 59.3307 244.245 57.6873 246.449 56.566C248.691 55.406 251.437 54.826 254.685 54.826H268.199V84H235.139ZM235.139 84C234.945 84 234.771 83.9227 234.617 83.768C234.462 83.5747 234.346 83.3233 234.269 83.014C234.191 82.666 234.133 82.26 234.095 81.796C234.017 81.2933 233.979 80.752 233.979 80.172C233.979 79.3987 234.017 78.7413 234.095 78.2C234.172 77.62 234.307 77.1753 234.501 76.866C234.655 76.5567 234.868 76.402 235.139 76.402V84ZM251.031 49.432V42.356H259.963V49.432H251.031ZM274.851 98.964C274.426 98.964 273.904 98.9253 273.285 98.848C272.666 98.8093 272.028 98.7707 271.371 98.732L271.661 91.25C272.28 91.25 272.879 91.2693 273.459 91.308C274.039 91.3467 274.464 91.366 274.735 91.366C276.166 91.366 277.287 90.8053 278.099 89.684C278.95 88.5627 279.375 86.9387 279.375 84.812V54.826H288.249V84.812C288.249 87.5573 287.688 89.9933 286.567 92.12C285.446 94.2853 283.88 95.9673 281.869 97.166C279.858 98.3647 277.519 98.964 274.851 98.964Z" fill="black"/>
<path d="M155.972 153V110.84H172.712C176.267 110.84 179.222 111.274 181.578 112.142C183.934 113.01 185.691 114.477 186.848 116.544C188.047 118.569 188.646 121.401 188.646 125.038C188.646 128.055 188.129 130.597 187.096 132.664C186.063 134.731 184.513 136.281 182.446 137.314L188.522 153H178.354L173.456 139.546H165.768V153H155.972ZM165.768 131.61H172.96C174.324 131.61 175.419 131.341 176.246 130.804C177.114 130.225 177.734 129.44 178.106 128.448C178.478 127.456 178.664 126.319 178.664 125.038C178.664 122.93 178.189 121.359 177.238 120.326C176.287 119.293 174.779 118.776 172.712 118.776H165.768V131.61ZM202.422 153.744C199.032 153.744 196.49 152.917 194.796 151.264C193.142 149.611 192.316 147.089 192.316 143.7C192.316 141.303 192.75 139.463 193.618 138.182C194.527 136.859 195.829 135.909 197.524 135.33C199.218 134.751 201.264 134.4 203.662 134.276L210.606 133.718V132.106C210.606 130.866 210.254 129.998 209.552 129.502C208.89 128.965 207.898 128.696 206.576 128.696C205.377 128.696 204.013 128.737 202.484 128.82C200.954 128.903 199.446 129.006 197.958 129.13C196.47 129.254 195.188 129.378 194.114 129.502L193.804 122.93C194.92 122.641 196.242 122.372 197.772 122.124C199.342 121.835 200.975 121.607 202.67 121.442C204.364 121.235 205.956 121.132 207.444 121.132C210.13 121.132 212.404 121.463 214.264 122.124C216.165 122.744 217.612 123.819 218.604 125.348C219.596 126.836 220.092 128.923 220.092 131.61V145.25C220.216 145.746 220.505 146.139 220.96 146.428C221.456 146.676 221.993 146.862 222.572 146.986L222.386 153.31C221.766 153.351 221.104 153.393 220.402 153.434C219.699 153.517 219.038 153.537 218.418 153.496C217.798 153.496 217.281 153.475 216.868 153.434C215.793 153.31 214.863 153.062 214.078 152.69C213.334 152.277 212.776 151.863 212.404 151.45C211.742 151.739 210.874 152.07 209.8 152.442C208.725 152.814 207.547 153.124 206.266 153.372C205.026 153.62 203.744 153.744 202.422 153.744ZM204.778 146.862C205.48 146.862 206.183 146.779 206.886 146.614C207.63 146.449 208.332 146.263 208.994 146.056C209.655 145.849 210.192 145.663 210.606 145.498V139.36L205.15 139.856C203.992 139.98 203.145 140.352 202.608 140.972C202.07 141.551 201.802 142.377 201.802 143.452C201.802 144.485 202.05 145.312 202.546 145.932C203.042 146.552 203.786 146.862 204.778 146.862ZM227.556 153V129.626H224.828V121.814H227.556V120.388C227.556 117.453 227.845 115.139 228.424 113.444C229.003 111.708 229.995 110.489 231.4 109.786C232.805 109.042 234.707 108.67 237.104 108.67C237.889 108.67 238.757 108.711 239.708 108.794C240.659 108.835 241.568 108.918 242.436 109.042C243.304 109.125 243.986 109.207 244.482 109.29L244.42 116.42C243.8 116.42 243.118 116.42 242.374 116.42C241.63 116.379 241.01 116.358 240.514 116.358C239.646 116.358 238.943 116.482 238.406 116.73C237.91 116.978 237.559 117.371 237.352 117.908C237.145 118.445 237.042 119.21 237.042 120.202V121.814H243.924V129.626H237.042V153H227.556ZM247.751 153V121.814H257.237V153H247.751ZM247.751 117.474V109.91H257.237V117.474H247.751ZM281.787 165.834V152.194C280.878 152.483 279.7 152.814 278.253 153.186C276.807 153.558 275.484 153.744 274.285 153.744C271.351 153.744 268.995 153.124 267.217 151.884C265.481 150.644 264.221 148.846 263.435 146.49C262.65 144.134 262.257 141.261 262.257 137.872C262.257 133.739 262.795 130.453 263.869 128.014C264.944 125.534 266.639 123.757 268.953 122.682C271.309 121.607 274.368 121.07 278.129 121.07C279.163 121.07 280.444 121.132 281.973 121.256C283.544 121.339 285.156 121.442 286.809 121.566C288.463 121.69 289.951 121.814 291.273 121.938V165.834H281.787ZM276.827 145.808C277.695 145.808 278.584 145.705 279.493 145.498C280.444 145.25 281.209 145.002 281.787 144.754V129.13C281.291 129.089 280.671 129.047 279.927 129.006C279.225 128.923 278.584 128.882 278.005 128.882C276.352 128.882 275.071 129.233 274.161 129.936C273.293 130.639 272.694 131.651 272.363 132.974C272.033 134.255 271.867 135.847 271.867 137.748C271.867 140.641 272.239 142.708 272.983 143.948C273.769 145.188 275.05 145.808 276.827 145.808Z" fill="black"/>
</svg>
