<svg width="370" height="201" viewBox="0 0 370 201" fill="none" xmlns="http://www.w3.org/2000/svg">
<path d="M0 0H370V197H0V0Z" fill="none"/>
<path d="M95.0167 180.556L87.4955 172.969L79.7302 180.767L87.4955 188.602L95.0167 180.98L102.572 188.602L110.302 180.767L102.572 172.969L95.0167 180.556Z" fill="#B5C934"/>
<path d="M62.2864 180.412L54.7653 172.824L47 180.623L54.7653 188.457L62.2864 180.836L69.8416 188.457L77.5719 180.623L69.8416 172.824L62.2864 180.412Z" fill="#B5C934"/>
<path d="M63.1608 19.589L55.6397 12.0017L47.8744 19.801L55.6397 27.6346L63.1608 20.013L70.715 27.6346L78.4463 19.801L70.715 12.0017L63.1608 19.589Z" fill="#B5C934"/>
<path d="M115.659 23.7561L116.397 39.2659L144.43 64.7524L147 52.2509L115.659 23.7561Z" fill="#B5C934"/>
<path d="M114.43 66.8542V160.579C114.43 161.948 112.898 162.58 111.748 162.616C111.748 171.89 125.363 173.119 125.363 160.579V55.9639L114.43 66.8542Z" fill="#252528"/>
<path d="M64.4306 96.5714H60.4489V45.6711C60.4489 43.0323 64.4306 43.0323 64.4306 45.6711V96.5714ZM49.4534 45.6711V107.603H64.4306V158.564C64.4306 161.261 60.4489 161.261 60.4489 158.564V110.181L49.4534 120.973V158.564C49.4534 175.95 75.3661 175.95 75.3661 158.564V45.6711C75.3661 28.2848 49.4534 28.2848 49.4534 45.6711Z" fill="#252528"/>
<path d="M97.1171 80.5316H93.1354V44.6191C93.1354 41.9813 97.1171 41.9813 97.1171 44.6191V80.5316ZM82.2 44.6191V91.5633H97.1171V95.5195H82.2V121.66H97.1171V157.512C97.1171 160.15 93.1354 160.15 93.1354 157.512V124.118L82.2 134.969V157.512C82.2 165.965 88.3221 170.282 94.6214 170.522H95.572C101.872 170.342 108.053 165.965 108.053 157.512V110.568H93.1354V106.551H108.053V44.6191C108.053 27.2327 82.2 27.2327 82.2 44.6191Z" fill="#252528"/>
<path d="M102.882 19.8585L95.0964 12.0642L87.3701 19.8585L95.0964 27.6527L102.882 19.8585Z" fill="#B5C934"/>
<path d="M178.59 99.384C175.999 99.384 173.583 99.0167 171.34 98.282C169.136 97.5473 167.203 96.5227 165.54 95.208C163.916 93.8933 162.64 92.3467 161.712 90.568C160.784 88.828 160.32 86.9333 160.32 84.884C160.32 84.1493 160.378 83.2213 160.494 82.1C160.61 80.9787 160.765 79.6833 160.958 78.214C161.151 76.7447 161.383 75.1593 161.654 73.458L170.412 74.618C170.025 77.0153 169.716 79.1227 169.484 80.94C169.291 82.7187 169.194 83.9947 169.194 84.768C169.194 86.1213 169.581 87.32 170.354 88.364C171.127 89.4467 172.21 90.278 173.602 90.858C175.033 91.4767 176.695 91.786 178.59 91.786H195.004C197.401 91.786 199.161 91.206 200.282 90.046C201.403 88.886 201.964 87.204 201.964 85V82.738H210.838V84.942C210.838 87.7647 210.181 90.2587 208.866 92.424C207.551 94.5893 205.715 96.2907 203.356 97.528C200.997 98.7653 198.213 99.384 195.004 99.384H178.59ZM199.702 85C197.769 85 195.932 84.7873 194.192 84.362C192.452 83.898 190.828 83.144 189.32 82.1L194.366 75.836C194.985 76.2613 195.526 76.59 195.99 76.822C196.493 77.054 197.034 77.2087 197.614 77.286C198.194 77.3633 198.89 77.402 199.702 77.402H213.158V85H199.702ZM213.158 85V77.402C213.351 77.402 213.525 77.4987 213.68 77.692C213.835 77.8467 213.951 78.098 214.028 78.446C214.105 78.7553 214.163 79.142 214.202 79.606C214.279 80.07 214.318 80.592 214.318 81.172C214.318 81.752 214.279 82.2933 214.202 82.796C214.163 83.26 214.105 83.666 214.028 84.014C213.951 84.3233 213.835 84.5747 213.68 84.768C213.525 84.9227 213.351 85 213.158 85ZM175.69 111.796V104.72H184.158V111.796H175.69ZM187.116 111.796V104.72H195.584V111.796H187.116ZM246.228 85V77.402H252.26V85H246.228ZM213.168 85C212.975 85 212.801 84.9227 212.646 84.768C212.491 84.5747 212.375 84.3233 212.298 84.014C212.221 83.666 212.163 83.26 212.124 82.796C212.047 82.2933 212.008 81.752 212.008 81.172C212.008 80.3987 212.047 79.7413 212.124 79.2C212.201 78.62 212.337 78.1753 212.53 77.866C212.685 77.5567 212.897 77.402 213.168 77.402V85ZM213.168 85V77.402H239.5L237.354 79.258V61.916L239.152 63.424H232.714C231.206 63.424 230.007 63.6367 229.118 64.062C228.267 64.4487 227.649 65.1447 227.262 66.15C226.914 67.1553 226.74 68.586 226.74 70.442C226.74 72.4913 226.914 74.0187 227.262 75.024C227.649 75.9907 228.267 76.6287 229.118 76.938C230.007 77.2473 231.206 77.402 232.714 77.402V84.42C229.466 84.42 226.721 83.956 224.478 83.028C222.274 82.1 220.611 80.6113 219.49 78.562C218.407 76.474 217.866 73.7673 217.866 70.442C217.866 67.31 218.407 64.6613 219.49 62.496C220.611 60.3307 222.274 58.6873 224.478 57.566C226.721 56.406 229.466 55.826 232.714 55.826H246.228V85H213.168ZM252.26 85V77.402C252.492 77.402 252.666 77.4987 252.782 77.692C252.937 77.8467 253.053 78.098 253.13 78.446C253.246 78.7553 253.323 79.142 253.362 79.606C253.401 80.07 253.42 80.592 253.42 81.172C253.42 81.752 253.401 82.2933 253.362 82.796C253.323 83.26 253.246 83.666 253.13 84.014C253.053 84.3233 252.937 84.5747 252.782 84.768C252.666 84.9227 252.492 85 252.26 85ZM223.666 50.432V43.356H232.134V50.432H223.666ZM235.092 50.432V43.356H243.56V50.432H235.092ZM271.332 85V77.402H278.872V85H271.332ZM278.872 85V77.402C279.104 77.402 279.278 77.4987 279.394 77.692C279.549 77.8467 279.665 78.098 279.742 78.446C279.858 78.7553 279.935 79.142 279.974 79.606C280.013 80.07 280.032 80.592 280.032 81.172C280.032 81.752 280.013 82.2933 279.974 82.796C279.935 83.26 279.858 83.666 279.742 84.014C279.665 84.3233 279.549 84.5747 279.394 84.768C279.278 84.9227 279.104 85 278.872 85ZM252.25 85C252.018 85 251.844 84.9227 251.728 84.768C251.573 84.5747 251.457 84.3233 251.38 84.014C251.303 83.666 251.245 83.26 251.206 82.796C251.129 82.2933 251.09 81.752 251.09 81.172C251.09 80.3987 251.129 79.7413 251.206 79.2C251.283 78.62 251.419 78.1753 251.612 77.866C251.767 77.5567 251.979 77.402 252.25 77.402V85ZM252.25 85V77.402H267.852L262.458 81.868V55.826H271.332V85H252.25ZM254.28 97.992V90.916H262.748V97.992H254.28ZM265.706 97.992V90.916H274.174V97.992H265.706ZM278.871 85V77.402H305.203L303.057 79.258V61.916L304.855 63.424H298.417C296.909 63.424 295.71 63.6367 294.821 64.062C293.97 64.4487 293.352 65.1447 292.965 66.15C292.617 67.1553 292.443 68.586 292.443 70.442C292.443 72.4913 292.617 74.0187 292.965 75.024C293.352 75.9907 293.97 76.6287 294.821 76.938C295.71 77.2473 296.909 77.402 298.417 77.402V84.42C295.169 84.42 292.424 83.956 290.181 83.028C287.977 82.1 286.314 80.6113 285.193 78.562C284.11 76.474 283.569 73.7673 283.569 70.442C283.569 67.31 284.11 64.6613 285.193 62.496C286.314 60.3307 287.977 58.6873 290.181 57.566C292.424 56.406 295.169 55.826 298.417 55.826H311.931V85H278.871ZM278.871 85C278.678 85 278.504 84.9227 278.349 84.768C278.194 84.5747 278.078 84.3233 278.001 84.014C277.924 83.666 277.866 83.26 277.827 82.796C277.75 82.2933 277.711 81.752 277.711 81.172C277.711 80.3987 277.75 79.7413 277.827 79.2C277.904 78.62 278.04 78.1753 278.233 77.866C278.388 77.5567 278.6 77.402 278.871 77.402V85ZM294.763 50.432V43.356H303.695V50.432H294.763ZM318.583 99.964C318.158 99.964 317.636 99.9253 317.017 99.848C316.399 99.8093 315.761 99.7707 315.103 99.732L315.393 92.25C316.012 92.25 316.611 92.2693 317.191 92.308C317.771 92.3467 318.197 92.366 318.467 92.366C319.898 92.366 321.019 91.8053 321.831 90.684C322.682 89.5627 323.107 87.9387 323.107 85.812V55.826H331.981V85.812C331.981 88.5573 331.421 90.9933 330.299 93.12C329.178 95.2853 327.612 96.9673 325.601 98.166C323.591 99.3647 321.251 99.964 318.583 99.964Z" fill="black"/>
<path d="M161.472 166V123.84H178.212C181.767 123.84 184.722 124.274 187.078 125.142C189.434 126.01 191.191 127.477 192.348 129.544C193.547 131.569 194.146 134.401 194.146 138.038C194.146 141.055 193.629 143.597 192.596 145.664C191.563 147.731 190.013 149.281 187.946 150.314L194.022 166H183.854L178.956 152.546H171.268V166H161.472ZM171.268 144.61H178.46C179.824 144.61 180.919 144.341 181.746 143.804C182.614 143.225 183.234 142.44 183.606 141.448C183.978 140.456 184.164 139.319 184.164 138.038C184.164 135.93 183.689 134.359 182.738 133.326C181.787 132.293 180.279 131.776 178.212 131.776H171.268V144.61ZM207.922 166.744C204.532 166.744 201.99 165.917 200.296 164.264C198.642 162.611 197.816 160.089 197.816 156.7C197.816 154.303 198.25 152.463 199.118 151.182C200.027 149.859 201.329 148.909 203.024 148.33C204.718 147.751 206.764 147.4 209.162 147.276L216.106 146.718V145.106C216.106 143.866 215.754 142.998 215.052 142.502C214.39 141.965 213.398 141.696 212.076 141.696C210.877 141.696 209.513 141.737 207.984 141.82C206.454 141.903 204.946 142.006 203.458 142.13C201.97 142.254 200.688 142.378 199.614 142.502L199.304 135.93C200.42 135.641 201.742 135.372 203.272 135.124C204.842 134.835 206.475 134.607 208.17 134.442C209.864 134.235 211.456 134.132 212.944 134.132C215.63 134.132 217.904 134.463 219.764 135.124C221.665 135.744 223.112 136.819 224.104 138.348C225.096 139.836 225.592 141.923 225.592 144.61V158.25C225.716 158.746 226.005 159.139 226.46 159.428C226.956 159.676 227.493 159.862 228.072 159.986L227.886 166.31C227.266 166.351 226.604 166.393 225.902 166.434C225.199 166.517 224.538 166.537 223.918 166.496C223.298 166.496 222.781 166.475 222.368 166.434C221.293 166.31 220.363 166.062 219.578 165.69C218.834 165.277 218.276 164.863 217.904 164.45C217.242 164.739 216.374 165.07 215.3 165.442C214.225 165.814 213.047 166.124 211.766 166.372C210.526 166.62 209.244 166.744 207.922 166.744ZM210.278 159.862C210.98 159.862 211.683 159.779 212.386 159.614C213.13 159.449 213.832 159.263 214.494 159.056C215.155 158.849 215.692 158.663 216.106 158.498V152.36L210.65 152.856C209.492 152.98 208.645 153.352 208.108 153.972C207.57 154.551 207.302 155.377 207.302 156.452C207.302 157.485 207.55 158.312 208.046 158.932C208.542 159.552 209.286 159.862 210.278 159.862ZM233.056 166V142.626H230.328V134.814H233.056V133.388C233.056 130.453 233.345 128.139 233.924 126.444C234.503 124.708 235.495 123.489 236.9 122.786C238.305 122.042 240.207 121.67 242.604 121.67C243.389 121.67 244.257 121.711 245.208 121.794C246.159 121.835 247.068 121.918 247.936 122.042C248.804 122.125 249.486 122.207 249.982 122.29L249.92 129.42C249.3 129.42 248.618 129.42 247.874 129.42C247.13 129.379 246.51 129.358 246.014 129.358C245.146 129.358 244.443 129.482 243.906 129.73C243.41 129.978 243.059 130.371 242.852 130.908C242.645 131.445 242.542 132.21 242.542 133.202V134.814H249.424V142.626H242.542V166H233.056ZM253.251 166V134.814H262.737V166H253.251ZM253.251 130.474V122.91H262.737V130.474H253.251ZM287.287 178.834V165.194C286.378 165.483 285.2 165.814 283.753 166.186C282.307 166.558 280.984 166.744 279.785 166.744C276.851 166.744 274.495 166.124 272.717 164.884C270.981 163.644 269.721 161.846 268.935 159.49C268.15 157.134 267.757 154.261 267.757 150.872C267.757 146.739 268.295 143.453 269.369 141.014C270.444 138.534 272.139 136.757 274.453 135.682C276.809 134.607 279.868 134.07 283.629 134.07C284.663 134.07 285.944 134.132 287.473 134.256C289.044 134.339 290.656 134.442 292.309 134.566C293.963 134.69 295.451 134.814 296.773 134.938V178.834H287.287ZM282.327 158.808C283.195 158.808 284.084 158.705 284.993 158.498C285.944 158.25 286.709 158.002 287.287 157.754V142.13C286.791 142.089 286.171 142.047 285.427 142.006C284.725 141.923 284.084 141.882 283.505 141.882C281.852 141.882 280.571 142.233 279.661 142.936C278.793 143.639 278.194 144.651 277.863 145.974C277.533 147.255 277.367 148.847 277.367 150.748C277.367 153.641 277.739 155.708 278.483 156.948C279.269 158.188 280.55 158.808 282.327 158.808ZM310.899 178.896L314.867 166H307.551L300.607 134.814H310.527L315.363 158.002H316.789L321.563 134.814H331.049L321.067 178.896H310.899Z" fill="black"/>
</svg>
