<svg width="200" height="200" viewBox="0 0 200 200" fill="none" xmlns="http://www.w3.org/2000/svg">
<g clip-path="url(#clip0_4609_311)">
<path d="M200 0H0V200H200V0Z" fill="white"/>
<path d="M108.203 156.771L102.344 150.912L96.2955 156.933L102.344 162.983L108.203 157.098L114.088 162.983L120.11 156.933L114.088 150.912L108.203 156.771Z" fill="#B5C934"/>
<path d="M82.7076 156.659L76.8489 150.8L70.8 156.822L76.8489 162.871L82.7076 156.986L88.5928 162.871L94.6145 156.822L88.5928 150.8L82.7076 156.659Z" fill="#B5C934"/>
<path d="M83.3888 32.4763L77.5301 26.6176L71.4812 32.64L77.5301 38.6889L83.3888 32.8036L89.2732 38.6889L95.2956 32.64L89.2732 26.6176L83.3888 32.4763Z" fill="#B5C934"/>
<path d="M124.283 35.694L124.858 47.6702L146.695 67.3502L148.697 57.6969L124.283 35.694Z" fill="#B5C934"/>
<path d="M123.325 68.973V141.344C123.325 142.402 122.132 142.89 121.236 142.917C121.236 150.079 131.842 151.028 131.842 141.344V60.5638L123.325 68.973Z" fill="#252528"/>
<path d="M84.3779 91.9199H81.2763V52.6162C81.2763 50.5786 84.3779 50.5786 84.3779 52.6162V91.9199ZM72.7112 52.6162V100.438H84.3779V139.789C84.3779 141.872 81.2763 141.872 81.2763 139.789V102.429L72.7112 110.762V139.789C72.7112 153.214 92.8962 153.214 92.8962 139.789V52.6162C92.8962 39.1909 72.7112 39.1909 72.7112 52.6162Z" fill="#252528"/>
<path d="M109.839 79.5344H106.738V51.8038C106.738 49.767 109.839 49.767 109.839 51.8038V79.5344ZM98.2195 51.8038V88.0528H109.839V91.1076H98.2195V111.293H109.839V138.977C109.839 141.013 106.738 141.013 106.738 138.977V113.191L98.2195 121.57V138.977C98.2195 145.504 102.988 148.837 107.895 149.023H108.636C113.544 148.883 118.358 145.504 118.358 138.977V102.728H106.738V99.626H118.358V51.8038C118.358 38.3785 98.2195 38.3785 98.2195 51.8038Z" fill="#252528"/>
<path d="M114.33 32.6844L108.265 26.6659L102.247 32.6844L108.265 38.7029L114.33 32.6844Z" fill="#B5C934"/>
</g>
<defs>
<clipPath id="clip0_4609_311">
<rect width="200" height="200" fill="white"/>
</clipPath>
</defs>
</svg>
